<svg xmlns="http://www.w3.org/2000/svg" width="16" height="16" viewBox="0 0 16 16" fill="none">
    <path d="M8 0C3.58 0 0 3.58 0 8c0 3.54 2.29 6.53 5.47 7.59.4.07.55-.17.55-.37v-1.28c-2.02.44-2.45-.49-2.59-1.03-.09-.25-.48-1.03-.82-1.24-.28-.19-.68-.66-.01-.67.63-.01 1.08.58 1.23.83.73 1.2 1.91.86 2.38.66.07-.53.28-.86.51-1.06-1.78-.2-3.64-.89-3.64-3.96 0-.87.31-1.58.82-2.14-.09-.2-.36-1.02.08-2.12 0 0 .67-.21 2.2.82a7.59 7.59 0 012.01-.27c.68.01 1.36.09 2.01.27 1.53-1.02 2.2-.82 2.2-.82.44 1.1.17 1.93.08 2.12.51.56.82 1.27.82 2.14 0 3.07-1.86 3.76-3.64 3.96.32.28.6.83.6 1.66v2.45c0 .2.15.44.55.37A8.002 8.002 0 0016 8c0-4.42-3.58-8-8-8z" fill="white"/>
</svg>
